# xmcd
#
# Track frame offsets:
#	183
#	13903
#	26658
#	37158
#	52833
#	66335
#	80583
#	94990
#	109310
#	120330
#	133015
#	148908
#	170358
#	188135
#	201038
#	216860
#	231330
#	244308
#	256910
#	277013
#	294185
#	311880
#
# Disc length: 4336
#
# Revision: 1
# Processed by: cddbd v1.5.1PL0 Copyright (c) Steve Scherf et al.
# Submitted via: EasyCDDAExtractor 4.5.0.2
# Normalized: r0:TDELIM( - )
#
DISCID=5310ee16
DTITLE=x - Traumreise der Erinnerung CD1
DYEAR=1990
DGENRE=Volksmusik und Schlager
TTITLE0=Karel Gott - Einmall um die ganze Welt
TTITLE1=Carmela Corren - Eine Rosen aus Santa Monica
TTITLE2=Blue Diamonds - Ein Schiff Fährt nach Shanghai
TTITLE3=Elisa Gabbai - Winter in Kanada
TTITLE4=Adamo - Es geht eine Träne auf Reisen
TTITLE5=Margot Esken - Ob in Bombay, ob in Rio
TTITLE6=Katja Ebstein - Ein Indiojunge aus Perú
TTITLE7=Manuela - Guantanamera
TTITLE8=Caterina Valente - Einmal weht der Südwind wieder
TTITLE9=Gerhardt Wendland - Arrivederci, Roma
TTITLE10=Peter Rubin - Azzurro
TTITLE11=Adamo - Inch´Allah
TTITLE12=G. G. Anderson - Am weißen Strand von San Angelo
TTITLE13=Costa Cordalis - Weiße Rosen aus Athen
TTITLE14=Vicky Leandros - Dann kamst du
TTITLE15=Buddy Caine - Wer so schön ist wie du, darf nicht weinen
TTITLE16=Morgot Eskens - Tiritomba
TTITLE17=Camillo Felgen - Ich hab´ das Glück bestellt für heute Abend
TTITLE18=Nicole - Papillon
TTITLE19=Nina and Mike - Rund um die Welt geht das Lied der Liebe
TTITLE20=Paola - Blue Bayou
TTITLE21=Udo Jürgens - Warum nur, warum
EXTD=CD von I.B.\n
EXTT0=
EXTT1=
EXTT2=
EXTT3=
EXTT4=
EXTT5=
EXTT6=
EXTT7=
EXTT8=
EXTT9=
EXTT10=
EXTT11=
EXTT12=
EXTT13=
EXTT14=
EXTT15=
EXTT16=
EXTT17=
EXTT18=
EXTT19=
EXTT20=
EXTT21=
PLAYORDER=
